<svg width="516" height="516" viewBox="0 0 516 516" fill="none" xmlns="http://www.w3.org/2000/svg">
<path d="M514 258C514 399.385 399.385 514 258 514C116.615 514 2 399.385 2 258C2 116.615 116.615 2 258 2C399.385 2 514 116.615 514 258Z" fill="#060308"/>
<path d="M131.6 146.5C131.6 146.683 131.692 148.058 131.875 150.625L121.15 152V339C121.7 361 108.5 383.733 81.55 407.2L78.25 404.725C94.5667 382.542 102.633 360.633 102.45 339V155.3C102.083 153.65 100.983 152.642 99.15 152.275L82.1 150.9L81.825 146.775L131.6 146.5Z" fill="#F2F2F3"/>
<path d="M153.269 150.625L153.544 146.5H220.644C245.394 146.5 265.194 153.742 280.044 168.225C295.077 182.525 302.594 205.9 302.594 238.35C302.594 270.433 297.369 294.45 286.919 310.4C277.752 324.333 263.452 333.133 244.019 336.8C235.402 338.267 225.319 339 213.769 339H208.544L153.269 339.275L153.544 335.425L167.844 333.5C169.677 333.317 170.777 332.125 171.144 329.925V156.125C170.777 153.742 169.677 152.458 167.844 152.275L153.269 150.625ZM219.269 150.625H189.844V334.875H212.394C221.194 334.875 228.619 334.417 234.669 333.5C240.902 332.4 247.319 330.017 253.919 326.35C260.702 322.5 266.019 317.275 269.869 310.675C279.219 295.092 283.894 271.442 283.894 239.725C283.894 206.725 277.386 183.35 264.369 169.6C252.452 156.95 237.419 150.625 219.269 150.625Z" fill="#F2F2F3"/>
<path d="M469.768 259.525C469.768 259.708 469.86 261.083 470.043 263.65L459.043 265.025V333.225C455.927 334.325 447.585 335.792 434.018 337.625C420.635 339.275 409.727 340.1 401.293 340.1C392.86 340.1 385.527 339.55 379.293 338.45C373.06 337.167 366.46 334.6 359.493 330.75C352.527 326.9 346.568 321.858 341.618 315.625C336.852 309.208 332.818 300.5 329.518 289.5C326.218 278.5 324.568 265.667 324.568 251C324.568 218.55 331.993 193.25 346.843 175.1C362.427 156.033 383.693 146.5 410.643 146.5C418.893 146.5 427.785 147.325 437.318 148.975C447.035 150.442 453.91 151.908 457.943 153.375L461.243 192.975L456.018 194.9L452.443 165.475C437.593 155.392 423.66 150.35 410.643 150.35C389.927 150.35 373.518 158.967 361.418 176.2C349.318 193.433 343.268 218.367 343.268 251C343.268 290.6 352.343 316.175 370.493 327.725C375.993 331.208 381.035 333.5 385.618 334.6C390.385 335.517 396.985 335.975 405.418 335.975C413.852 335.975 426.227 334.783 442.543 332.4L443.643 269.15C443.643 266.95 442.543 265.667 440.343 265.3L420.543 263.925C420.36 262.825 420.268 261.45 420.268 259.8L469.768 259.525Z" fill="#F2F2F3"/>
<path d="M258 515C399.937 515 515 399.937 515 258C515 116.063 399.937 1 258 1C116.063 1 1 116.063 1 258C1 399.937 116.063 515 258 515Z" stroke="#F2F2F3" stroke-width="2"/>
</svg>
