<svg width="512" height="512" viewBox="0 0 512 512" fill="none" xmlns="http://www.w3.org/2000/svg">
<path d="M512 256C512 397.385 397.385 512 256 512C114.615 512 0 397.385 0 256C0 114.615 114.615 0 256 0C397.385 0 512 114.615 512 256Z" fill="#F2F2F3"/>
<path d="M129.6 144.5C129.6 144.683 129.692 146.058 129.875 148.625L119.15 150V337C119.7 359 106.5 381.733 79.55 405.2L76.25 402.725C92.5667 380.542 100.633 358.633 100.45 337V153.3C100.083 151.65 98.9833 150.642 97.15 150.275L80.1 148.9L79.825 144.775L129.6 144.5Z" fill="#060308"/>
<path d="M151.269 148.625L151.544 144.5H218.644C243.394 144.5 263.194 151.742 278.044 166.225C293.077 180.525 300.594 203.9 300.594 236.35C300.594 268.433 295.369 292.45 284.919 308.4C275.752 322.333 261.452 331.133 242.019 334.8C233.402 336.267 223.319 337 211.769 337H206.544L151.269 337.275L151.544 333.425L165.844 331.5C167.677 331.317 168.777 330.125 169.144 327.925V154.125C168.777 151.742 167.677 150.458 165.844 150.275L151.269 148.625ZM217.269 148.625H187.844V332.875H210.394C219.194 332.875 226.619 332.417 232.669 331.5C238.902 330.4 245.319 328.017 251.919 324.35C258.702 320.5 264.019 315.275 267.869 308.675C277.219 293.092 281.894 269.442 281.894 237.725C281.894 204.725 275.386 181.35 262.369 167.6C250.452 154.95 235.419 148.625 217.269 148.625Z" fill="#060308"/>
<path d="M467.768 257.525C467.768 257.708 467.86 259.083 468.043 261.65L457.043 263.025V331.225C453.927 332.325 445.585 333.792 432.018 335.625C418.635 337.275 407.727 338.1 399.293 338.1C390.86 338.1 383.527 337.55 377.293 336.45C371.06 335.167 364.46 332.6 357.493 328.75C350.527 324.9 344.568 319.858 339.618 313.625C334.852 307.208 330.818 298.5 327.518 287.5C324.218 276.5 322.568 263.667 322.568 249C322.568 216.55 329.993 191.25 344.843 173.1C360.427 154.033 381.693 144.5 408.643 144.5C416.893 144.5 425.785 145.325 435.318 146.975C445.035 148.442 451.91 149.908 455.943 151.375L459.243 190.975L454.018 192.9L450.443 163.475C435.593 153.392 421.66 148.35 408.643 148.35C387.927 148.35 371.518 156.967 359.418 174.2C347.318 191.433 341.268 216.367 341.268 249C341.268 288.6 350.343 314.175 368.493 325.725C373.993 329.208 379.035 331.5 383.618 332.6C388.385 333.517 394.985 333.975 403.418 333.975C411.852 333.975 424.227 332.783 440.543 330.4L441.643 267.15C441.643 264.95 440.543 263.667 438.343 263.3L418.543 261.925C418.36 260.825 418.268 259.45 418.268 257.8L467.768 257.525Z" fill="#060308"/>
</svg>
